<svg id="Layer_1" data-name="Layer 1" xmlns="http://www.w3.org/2000/svg" viewBox="0 0 1000 1000"><defs><style>.cls-1{fill:#05857e;}</style></defs><title>Eventcide</title><path class="cls-1" d="M749.94,689.38H422.27c-8.87,0-17.63-.7-25.43,4.61-21.81,14.86-10.4,44.66,12.39,48.85a7.17,7.17,0,0,0,3,.66h321.9c-7.88,16.34-15.59,32.84-24.32,48.69-8.29,15.06-21.94,12.91-36.2,12.91H430.12c-17.16,0-35,1.41-52.12,0-5.06-.42-5.14.63-5.76-5-1.43-13.16,0-27.26,0-40.5V571.85h23.14a6.86,6.86,0,0,0,1-.2H589.76c35.69,0,72.43,4.31,99.48-24.87,14-15.09,25.08-34.95,37.06-51.69,15.17-21.22,16.69-51.67-8.74-66.36-11.8-6.82-25-6.21-38-6.21H429.43c-8.81,0-19.51-1.37-28,1.64-28.64,10.2-19.72,51,9.18,52.48,8.88.44,17.9,0,26.79,0H674.06l-12.58,17.16c-7.1,9.69-13.74,22.13-26.85,23.74-13.88,1.7-29,0-43,0H372.25V308.73h25.12a6.77,6.77,0,0,0,.8-.16H678c9.36,0,18.63.36,27.86-1.64,25.32-5.51,43.13-23.08,54.52-45.38,9.12-17.86,18.42-35.64,27.37-53.59,12-24.13,8.13-53.57-19.62-64.22-9.36-3.59-19.07-3.25-28.87-3.25H437.75c-21.45,0-43-.66-64.45,0-27.15.84-50.7,19.93-54.57,47.37-2.52,17.88-.61,37-.61,55v11.59c-11.11,0-22.22-.11-33.32,0-21,.2-37.53,9.3-51.89,24.29-10.4,10.85-19.83,23-29.85,34.21-8.59,9.63-18.87,19-26.34,29.53-13.69,19.33-3.86,48.82,15.68,59.77,13.25,7.43,28.57,6.1,43.19,6.1s29.34.59,43.94,0c18.88-.77,33.65-18.14,26.12-37-7.2-18-24.71-17.1-40.75-17.1H235.74c10.08-10.79,20.21-21.57,29.61-32.88,4.88-5.87,8.59-11.68,16.88-12.79,3.59-.48,7.63,0,11.24,0h21.68a6.8,6.8,0,0,0,.8.16h2.18V517.34c-16.41-.48-34.09-2-49.67,1.95C242,526,226.55,549.66,210,569.36L187,596.8c-4.22,5-9.59,10-12.53,15.94-7.84,15.71-3.76,36.93,8.41,49.17,9.47,9.54,22.31,13.13,35.42,13.32,20.76.3,41.53,0,62.29,0a7.14,7.14,0,0,0,3-.71c33-5.52,29.69-53.23-5.42-53.41-14.53-.08-29.06,0-43.59,0,10.32-11.93,20.69-23.84,30.57-36.1,4.24-5.26,7.29-10.7,14.36-12.61,4.23-1.14,8.51-.76,12.9-.76H313a7,7,0,0,0,1,.2h4.16V791.57c0,16.82.9,32.51,11.78,46.45s26.85,20.76,44.21,21.19c53.12,1.34,106.45,0,159.59,0,52.4,0,105,1.34,157.39,0a77.78,77.78,0,0,0,59.7-30.57c9-12,14.76-27.2,21.42-40.58,6.93-13.93,16.28-28.46,20.78-43.48C802,714.47,779.31,690.53,749.94,689.38Zm-494-380.13c-12.89,16.5-28.36,31.6-42.5,47.16-4.25,4.68-1.4,12.7,5.26,12.7,20.09,0,41.13-1.93,61.12,0,9.84.95,18.55,12.09,9.41,20.79-4,3.81-9,3.57-14,3.57H235.59c-11.48,0-25.32,1.71-35.68-4.07-15.41-8.6-18.81-29.51-7.68-42,16.32-18.31,32.13-37.17,48.59-55.33,13.88-15.31,28.14-22.75,48.65-22.75H639.72c17.2,0,34.82,1.13,52,0,21.11-1.39,29.39-17.23,37.76-33.63l22.87-44.79c2.52-4.94-.54-11.19-6.42-11.19H408.56c-14.44,0-44.54-5.54-50.22,12.27a6.52,6.52,0,0,0-.45,1c-.06.22-.21.35-.25.58a6.37,6.37,0,0,0,0,.69,7,7,0,0,0-.26,1.28v58.88H333v-41c0-22.89,1.29-47.37,27.46-56,7.77-2.57,15.87-2.09,23.93-2.09h284c25.83,0,51.67-.14,77.5,0,1.35,0,2.72-.06,4.08,0,23.52,1,36.37,20.39,26.34,42.31-6.64,14.51-14.58,28.55-21.83,42.75C744.56,259.76,736.36,278,715.36,288c-11.26,5.39-22.38,5.68-34.35,5.68H584.21c-71.65,0-143.4-1.12-215,0-1.45,0-2.91,0-4.36,0a6.71,6.71,0,0,0-.78.16H326.35a6.71,6.71,0,0,0-.78-.16C301.1,293.69,272.74,287.74,255.93,309.25Zm145.16-54.8H372.25V197.24c2.43-6.28,32.47-2.64,37.85-2.64H733.78l-13,25.47c-6.62,13-12.18,32.31-29.06,34.38-16.17,2-33.87,0-50.13,0H401.09Zm-43.72,54.28v208.8H333V308.73Zm-67.9,248c-14.63,0-24.54,4.44-33.54,16.23-13.3,17.42-28.58,33.6-42.79,50.29-4,4.75-1.56,12.7,5.26,12.7h40.94c6.07,0,12.18-.22,18.25,0,4.36.16,8.13,0,11.63,3.38,8.29,7.9,1.38,20-8.61,20.79-.27,0-.51.15-.78.19H231.23c-6.84,0-14,.54-20.78-.59-17.6-2.94-31.48-22.9-23.26-40.13,2.52-5.28,8.67-10.34,12.42-14.8l20.25-24.14c14.23-17,27.43-38.83,49.34-46.13,12.7-4.23,28.16-3.33,42.52-2.61a7.28,7.28,0,0,0,2.25.46H590.7c14.56,0,29.48,1,44,0,17.37-1.15,26.49-13.21,35.85-26l24.54-33.48c3.44-4.7-1.23-11.19-6.42-11.19H484.11c-24,0-49.64,2.56-73.57,0-16.31-1.75-15-23,.85-24.36,3.06-.27,6.26,0,9.32,0H463.8c75.16,0,150.33-.46,225.49,0,4.92,0,9.75.08,14.54,1.57,18.41,5.72,24,26.32,14.25,42.14-9.31,15.12-21.31,28.62-31.07,43.46-12.87,19.56-31.17,32-55.15,32.22-11.29.09-22.58,0-33.87,0H364.81a6.76,6.76,0,0,0-1,.2H326.54a6.76,6.76,0,0,0-1-.2ZM773.54,752.07l-21,42.25c-6.17,12.41-11.3,25.05-22,34.41A63,63,0,0,1,689,844.34c-50.93.4-101.88,0-152.82,0-52.73,0-105.46.25-158.19,0-10.24,0-20.08-1.5-28.63-7.81-15.29-11.29-16.36-27.82-16.36-45V571.85h24.36V795.6c0,11.5,1.63,23.13,15.87,24.37,12.13,1.06,24.83,0,37,0H667c18.65,0,38.55,2.69,51.81-14.06,7.19-9.07,11.39-21.48,16.49-31.75l17.05-34.36c2.46-5-.49-11.19-6.42-11.19H413c-.27,0-.5-.17-.77-.19C394.64,727,398,705.18,414.1,704.26c1.1-.06,2.23,0,3.32,0,6.72.12,13.45,0,20.18,0H749.94c17,.66,31.6,11.14,29.95,29.69C779.3,740.58,776.43,746.25,773.54,752.07Z"/></svg>